<svg xmlns="http://www.w3.org/2000/svg" xmlns:xlink="http://www.w3.org/1999/xlink" viewBox="0 0 1366 731.33"><defs><style>.cls-1{fill:url(#linear-gradient);}</style><linearGradient id="linear-gradient" x1="1051.44" y1="169.03" x2="43" y2="673.25" gradientUnits="userSpaceOnUse"><stop offset="0" stop-color="#48ff3f"/><stop offset="1" stop-color="#6aff99"/></linearGradient></defs><g id="Layer_2" data-name="Layer 2"><g id="Layer_1-2" data-name="Layer 1"><path class="cls-1" d="M45,700.4c27-.23,54.38,2.38,81,6.43,30.32,4.59,54.49,19.6,86.35,16C254.32,718,292.91,702.18,335.67,699c50.72-3.81,102.17.76,151.15,14.65,6.79,1.92,13.67,4,21,4.26,9.46.27,18.44-2.65,27.17-5.23,92.82-27.48,204.55-21.8,289.9,14.75,4.37,1.87,9,3.87,14.11,3.92,5,0,9.56-1.76,13.92-3.44,83.84-32.25,189.2-36.21,277.08-10.4,6.64,2,13.4,4.09,20.63,4.28,6.2.16,12.27-1.14,18.2-2.42,42.28-9.13,80.68-17.87,125.27-18.26a460.7,460.7,0,0,1,71.87,5V309.44s0-143-290-143S683,.44,683,.44s0-1-683,0V703Q22.07,700.64,45,700.4Z"/></g></g></svg>