<svg xmlns="http://www.w3.org/2000/svg" xmlns:xlink="http://www.w3.org/1999/xlink" viewBox="0 0 1325 711.92"><defs><style>.cls-1{fill:url(#linear-gradient);}</style><linearGradient id="linear-gradient" x1="1019.88" y1="163.96" x2="41.71" y2="653.04" gradientUnits="userSpaceOnUse"><stop offset="0" stop-color="#48ff3f"/><stop offset="1" stop-color="#6aff99"/></linearGradient></defs><g id="Layer_2" data-name="Layer 2"><g id="Layer_1-2" data-name="Layer 1"><path class="cls-1" d="M1043.7,161.45c-281.29,0-381.2-161-381.2-161s0-1-662.5,0V681.89q21.39-2.28,43.67-2.51c26.18-.23,95.55,9.43,120.26,18,3.81,1.32,22.26,6.75,23.28,7.76-.7-1.7,6.79,3.88,13.58,6.79h2.91c3.4-1.39,8-3.31,11.64-4.85.73-.26,8.73-3.88,8.73-3.88,46.19-18.36,188.71-22.1,237.16-3.88,6.41,2.41,27.3,12.4,34.43,12.61,9.18.26,25-8.17,33.47-10.67,90-26.66,182.5-33.51,265.29,1.94,4.23,1.81,15.37,8.68,20.37,8.73,4.82,0,12.26-4.2,16.49-5.82,81.33-31.29,169.86-30.85,255.1-5.82,6.45,1.89,25,11.45,32,11.64,6,.15,47.6-20.1,53.35-21.34,41-8.86,40.3-10.15,83.55-10.53a445.66,445.66,0,0,1,69.71,4.81V300.16S1325,161.45,1043.7,161.45Z"/></g></g></svg>