<svg xmlns="http://www.w3.org/2000/svg" xmlns:xlink="http://www.w3.org/1999/xlink" viewBox="0 0 1366 733.95"><defs><style>.cls-1{fill:url(#linear-gradient);}</style><linearGradient id="linear-gradient" x1="1051.44" y1="169.03" x2="43" y2="673.25" gradientUnits="userSpaceOnUse"><stop offset="0" stop-color="#48ff3f"/><stop offset="1" stop-color="#6aff99"/></linearGradient></defs><g id="Layer_2" data-name="Layer 2"><g id="Layer_1-2" data-name="Layer 1"><path class="cls-1" d="M1076,166.44c-290,0-393-166-393-166s0-1-683,0V703q22.07-2.36,45-2.59c27-.23,98.51,9.73,124,18.54,3.93,1.37,22.95,7,24,8-.72-1.74,7,4,14,7h3c3.5-1.42,8.27-3.4,12-5,.75-.26,9-4,9-4,47.62-18.92,194.56-22.78,244.5-4,6.61,2.49,28.15,12.79,35.5,13,9.46.28,25.77-8.41,34.5-11,92.82-27.48,188.15-34.54,273.5,2,4.36,1.87,15.85,9,21,9,5,0,12.64-4.32,17-6,83.85-32.25,175.12-31.8,263-6,6.64,2,25.77,11.82,33,12,6.2.16,49.07-20.71,55-22,42.27-9.13,41.54-10.46,86.13-10.85a460.7,460.7,0,0,1,71.87,5V309.44S1366,166.44,1076,166.44Z"/></g></g></svg>