<svg xmlns="http://www.w3.org/2000/svg" viewBox="0 0 410 411.4"><defs><style>.cls-1{fill:#fff;}.cls-2{font-size:150px;font-family:RageItalic, Rage Italic;}.cls-2,.cls-4{fill:#3aff35;}.cls-2,.cls-3,.cls-4{stroke:#000;}.cls-2,.cls-3,.cls-4,.cls-5{stroke-miterlimit:10;}.cls-3{fill:#21b6a8;}.cls-3,.cls-4{stroke-width:2px;}.cls-5{fill:none;stroke:lime;}</style></defs><g id="Layer_2" data-name="Layer 2"><g id="Layer_1-2" data-name="Layer 1"><circle class="cls-1" cx="205" cy="205" r="204"/><path d="M205,2a203.06,203.06,0,0,1,79,390.05A203.06,203.06,0,0,1,126,18,201.83,201.83,0,0,1,205,2m0-2C91.78,0,0,91.78,0,205S91.78,410,205,410s205-91.78,205-205S318.22,0,205,0Z"/><text class="cls-2" transform="translate(92.19 345.77)">SN</text><path class="cls-3" d="M281.5,198.5c0,11.6-34.47,21-77,21s-77-9.4-77-21v-40c0,11.6,34.47,21,77,21s77-9.4,77-21Z"/><path class="cls-4" d="M281.5,148.5c0,11.6-34.47,21-77,21s-77-9.4-77-21v-40c0,11.6,34.47,21,77,21s77-9.4,77-21Z"/><path class="cls-3" d="M281.5,198.5c0,11.6-34.47,21-77,21s-77-9.4-77-21v-40c0,11.6,34.47,21,77,21s77-9.4,77-21Z"/><line class="cls-5" x1="128.5" y1="163.5" x2="128.5" y2="165.5"/><ellipse class="cls-4" cx="205" cy="59" rx="77" ry="21"/><path class="cls-4" d="M281.5,98.51c0,11.6-34.48,21-77,21s-77-9.42-77-21v-40c0,11.59,34.47,21,77,21s77-9.39,77-21Z"/><path class="cls-3" d="M133,73V99"/><path class="cls-3" d="M133,73V99"/><path class="cls-3" d="M133,73V99"/><path class="cls-3" d="M133,73V99"/><path class="cls-3" d="M133,73V99"/><path class="cls-3" d="M133,73V99"/><path class="cls-3" d="M133,73V99"/><path class="cls-3" d="M133,73V99"/><path class="cls-3" d="M133,73V99"/><path class="cls-3" d="M133,73V99"/><path class="cls-3" d="M133,73V99"/><path class="cls-3" d="M133,73V99"/><path class="cls-3" d="M133,73V99"/><path class="cls-3" d="M133,73V99"/><path class="cls-3" d="M133,73V99"/><path class="cls-3" d="M133,73V99"/><path class="cls-3" d="M133,73V99"/><path class="cls-3" d="M133,73V99"/><path class="cls-3" d="M133,73V99"/><path class="cls-3" d="M133,73V99"/><path class="cls-3" d="M133,73V99"/><path class="cls-3" d="M133,73V99"/><path class="cls-3" d="M133,73V99"/><path class="cls-3" d="M133,73V99"/><path class="cls-3" d="M133,73V99"/><path class="cls-3" d="M133,73V99"/><path class="cls-3" d="M133,73V99"/><path class="cls-3" d="M133,73V99"/><path class="cls-3" d="M133,73V99"/><path class="cls-3" d="M133,73V99"/><path class="cls-3" d="M133,73V99"/><path class="cls-3" d="M133,124v26"/><path class="cls-4" d="M281.5,198.5c0,11.6-34.47,21-77,21s-77-9.4-77-21v-40c0,11.6,34.47,21,77,21s77-9.4,77-21Z"/><path class="cls-3" d="M133,73V99"/><path class="cls-3" d="M133,73V99"/><path class="cls-3" d="M133,73V99"/><path class="cls-3" d="M133,73V99"/><path class="cls-3" d="M133,73V99"/><path class="cls-3" d="M133,73V99"/><path class="cls-3" d="M133,73V99"/><path class="cls-3" d="M133,73V99"/><path class="cls-3" d="M133,73V99"/><path class="cls-3" d="M133,73V99"/><path class="cls-3" d="M133,73V99"/><path class="cls-3" d="M133,73V99"/><path class="cls-3" d="M133,173v26"/><path class="cls-3" d="M133,73V99"/></g></g></svg>